<?xml version="1.0" encoding="UTF-8"?><svg id="Calque_2" xmlns="http://www.w3.org/2000/svg" viewBox="0 0 62.68 90.77"><defs><style>.cls-1{fill:#353535;}</style></defs><g id="Calque_1-2"><path class="cls-1" d="M31.31,.01c.53,0,1.06-.03,1.59,0,1.03,.08,2.05,.19,3.08,.29,2.12,.22,4.16,.81,6.16,1.53,1.97,.71,3.86,1.6,5.61,2.76,1.21,.81,2.45,1.6,3.56,2.53,1.2,1.01,2.29,2.17,3.4,3.29,1.16,1.18,2.12,2.53,3.01,3.92,1.2,1.87,2.25,3.82,2.96,5.93,.5,1.49,.95,3,1.34,4.53,.22,.88,.26,1.81,.42,2.71,.31,1.79,.26,3.6,.2,5.4-.04,1.23-.21,2.47-.43,3.69-.26,1.43-.58,2.85-1,4.24-.37,1.22-.85,2.42-1.39,3.58-.56,1.21-1.21,2.37-1.86,3.53-1.19,2.11-2.41,4.2-3.61,6.3-1.02,1.79-2.03,3.59-3.06,5.37-1.22,2.12-2.45,4.23-3.67,6.35-.93,1.62-1.84,3.24-2.77,4.86-1.01,1.76-2.04,3.5-3.04,5.26-.86,1.5-1.7,3.01-2.56,4.51-.9,1.57-1.83,3.14-2.73,4.71-.65,1.13-1.31,2.27-1.92,3.42-.85,1.61-2.68,2.42-4.34,1.86-.95-.32-1.61-.96-2.1-1.83-.93-1.66-1.9-3.29-2.85-4.94-.94-1.64-1.86-3.28-2.81-4.92-1.08-1.87-2.17-3.73-3.25-5.61-.92-1.61-1.82-3.22-2.75-4.83-1.02-1.78-2.06-3.54-3.09-5.32-1.07-1.86-2.12-3.74-3.18-5.6-1.26-2.2-2.54-4.38-3.78-6.59-1.19-2.12-2.36-4.26-3.49-6.41-.83-1.59-1.39-3.29-1.87-5.01-.33-1.2-.56-2.43-.76-3.65-.14-.86-.18-1.73-.24-2.6-.05-.79-.11-1.58-.07-2.37,.06-1.26,.18-2.51,.29-3.76,.14-1.58,.53-3.11,.96-4.63,.42-1.49,.99-2.91,1.61-4.32,.69-1.56,1.54-3.04,2.51-4.44,.68-.97,1.41-1.92,2.16-2.83,.64-.77,1.32-1.49,2.03-2.19,1.25-1.23,2.6-2.36,4.08-3.31,1.3-.83,2.63-1.62,3.99-2.33,1.64-.85,3.39-1.49,5.17-1.98,1.14-.32,2.3-.56,3.46-.77,.74-.14,1.5-.2,2.26-.23,.93-.04,1.86,0,2.78,0V.01Zm-13.93,33.16c0,4.39,1.28,7.6,3.8,10.29,2.48,2.65,5.58,4.13,9.21,4.36,4.19,.27,7.83-1.1,10.81-4.03,2.55-2.51,3.94-5.63,4.11-9.2,.19-3.82-1.01-7.21-3.59-10.06-2.6-2.88-5.87-4.44-9.75-4.61-3.92-.17-7.36,1.08-10.2,3.78-2.89,2.74-4.37,6.14-4.39,9.47Z"/></g></svg>