<?xml version="1.0" encoding="UTF-8"?><svg id="Calque_2" xmlns="http://www.w3.org/2000/svg" viewBox="0 0 44 39.95"><defs><style>.cls-1{fill:#fff;}</style></defs><g id="Calque_1-2"><path class="cls-1" d="M21.75,36.95c.17,0,.36-.04,.58-.12,.22-.08,.39-.19,.52-.33l16.85-16.9c.43-.43,.76-.92,.97-1.48,.22-.55,.33-1.11,.33-1.67s-.11-1.13-.33-1.7-.54-1.07-.97-1.5L30.7,4.25c-.43-.43-.93-.76-1.5-.97-.57-.22-1.13-.32-1.7-.32s-1.12,.11-1.67,.32c-.55,.22-1.04,.54-1.48,.98l-.9,.9,4.05,4.1c.43,.47,.82,1.01,1.15,1.62,.33,.62,.5,1.29,.5,2.02,0,1.27-.49,2.38-1.48,3.35s-2.11,1.45-3.38,1.45c-.83,0-1.52-.12-2.08-.38s-1.06-.61-1.52-1.08l-3.65-3.65-9.05,9.05c-.17,.17-.28,.34-.35,.52-.07,.18-.1,.38-.1,.58,0,.43,.14,.79,.43,1.08,.28,.28,.64,.42,1.07,.42,.2,0,.39-.05,.57-.15,.18-.1,.34-.22,.48-.35l6.9-6.9,2.1,2.1-6.85,6.85c-.17,.17-.28,.35-.35,.55-.07,.2-.1,.4-.1,.6,0,.4,.15,.75,.45,1.05,.3,.3,.65,.45,1.05,.45,.2,0,.39-.04,.57-.12,.18-.08,.34-.19,.47-.33l6.9-6.9,2.1,2.1-6.85,6.85c-.13,.13-.24,.31-.33,.53-.08,.22-.12,.42-.12,.62,0,.4,.15,.75,.45,1.05,.3,.3,.65,.45,1.05,.45,.2,0,.38-.03,.55-.1,.17-.07,.33-.18,.5-.35l6.9-6.9,2.1,2.1-6.9,6.9c-.17,.17-.28,.35-.35,.55-.07,.2-.1,.38-.1,.55,0,.47,.13,.83,.4,1.1s.63,.4,1.1,.4Zm0,3c-1.1,0-2.08-.41-2.95-1.22-.87-.82-1.38-1.83-1.55-3.03-1.13-.17-2.08-.63-2.85-1.4-.77-.77-1.23-1.72-1.4-2.85-1.13-.17-2.07-.64-2.82-1.42s-1.21-1.72-1.38-2.83c-1.23-.17-2.25-.67-3.05-1.5-.8-.83-1.2-1.83-1.2-3,0-.57,.11-1.13,.32-1.7s.54-1.07,.97-1.5l11.2-11.2,5.5,5.5c.27,.27,.56,.48,.88,.62s.62,.23,.92,.23c.43,0,.84-.19,1.23-.58s.58-.79,.58-1.23c0-.2-.06-.42-.17-.67-.12-.25-.31-.51-.58-.77l-7.15-7.15c-.43-.43-.93-.76-1.5-.97-.57-.22-1.13-.33-1.7-.33s-1.12,.11-1.68,.32c-.55,.22-1.04,.54-1.48,.98l-7.6,7.6c-.47,.47-.79,.96-.97,1.48-.18,.52-.29,1.09-.32,1.73-.03,.67,.09,1.31,.38,1.92,.28,.62,.62,1.17,1.03,1.68l-2.15,2.15c-.67-.73-1.21-1.62-1.62-2.65-.42-1.03-.62-2.08-.62-3.15,0-1,.19-1.96,.58-2.88,.38-.92,.92-1.72,1.62-2.42L9.75,2.15c.73-.73,1.57-1.28,2.5-1.62s1.88-.53,2.85-.53,1.91,.18,2.83,.53c.92,.35,1.74,.89,2.47,1.62l.9,.9,.9-.9c.73-.73,1.57-1.28,2.5-1.62,.93-.35,1.88-.53,2.85-.53s1.91,.18,2.83,.53c.92,.35,1.74,.89,2.47,1.62l8.95,8.95c.73,.73,1.28,1.57,1.65,2.5,.37,.93,.55,1.88,.55,2.85s-.18,1.91-.55,2.83c-.37,.92-.92,1.74-1.65,2.47l-16.85,16.85c-.43,.43-.92,.77-1.48,1-.55,.23-1.12,.35-1.73,.35Z"/></g></svg>