<?xml version="1.0" encoding="UTF-8"?><svg id="Calque_2" xmlns="http://www.w3.org/2000/svg" viewBox="0 0 28 44"><defs><style>.cls-1{fill:#9356dc;}</style></defs><g id="Calque_1-2"><path class="cls-1" d="M14,40.25c.43,0,.79-.14,1.08-.42,.28-.28,.42-.64,.42-1.08s-.14-.79-.42-1.08c-.28-.28-.64-.42-1.08-.42s-.79,.14-1.08,.42c-.28,.28-.42,.64-.42,1.08s.14,.79,.42,1.08c.28,.28,.64,.42,1.08,.42Zm-11-6.75H25V7.5H3v26Zm0,10.5c-.8,0-1.5-.3-2.1-.9-.6-.6-.9-1.3-.9-2.1V3C0,2.2,.3,1.5,.9,.9c.6-.6,1.3-.9,2.1-.9H25c.8,0,1.5,.3,2.1,.9,.6,.6,.9,1.3,.9,2.1V41c0,.8-.3,1.5-.9,2.1-.6,.6-1.3,.9-2.1,.9H3ZM3,4.5H25v-1.5H3v1.5Zm0-1.5v0Zm0,33.5v4.5H25v-4.5H3Zm0,4.5v0Z"/></g></svg>