<?xml version="1.0" encoding="UTF-8"?><svg id="Calque_2" xmlns="http://www.w3.org/2000/svg" viewBox="0 0 40 36.39"><g id="Calque_1-2"><path d="M29.5,1.42c2.6,0,4.72,.85,6.47,2.61,1.76,1.76,2.61,3.89,2.61,6.52,0,3.43-1.53,6.9-4.55,10.31-3.22,3.65-7.57,7.98-12.94,12.89l-1.1,.99-1.09-.99c-5.37-4.91-9.73-9.25-12.94-12.89C2.95,17.45,1.42,13.98,1.42,10.55c0-2.63,.85-4.77,2.61-6.52,1.76-1.76,3.87-2.61,6.47-2.61,1.47,0,2.96,.36,4.43,1.08,1.44,.71,2.76,1.9,3.91,3.56,.26,.37,.67,.59,1.12,.61h.04c.43,0,.85-.2,1.11-.54,1.33-1.7,2.71-2.92,4.09-3.64,1.35-.71,2.8-1.06,4.29-1.06m0-1.42c-1.73,0-3.38,.41-4.95,1.23-1.57,.82-3.08,2.16-4.55,4.02-1.3-1.87-2.78-3.21-4.45-4.02-1.67-.82-3.35-1.23-5.05-1.23C7.53,0,5.04,1.01,3.03,3.03,1.01,5.04,0,7.55,0,10.55c0,3.8,1.63,7.55,4.9,11.25,3.27,3.7,7.62,8.03,13.05,13l1.76,1.59h.58l1.76-1.59c5.43-4.97,9.78-9.3,13.05-13,3.27-3.7,4.9-7.45,4.9-11.25,0-3-1.01-5.51-3.03-7.52-2.02-2.02-4.51-3.03-7.47-3.03h0Z"/></g></svg>