<?xml version="1.0" encoding="UTF-8"?><svg id="Calque_2" xmlns="http://www.w3.org/2000/svg" xmlns:xlink="http://www.w3.org/1999/xlink" viewBox="0 0 40 36.39"><defs><style>.cls-1{fill:url(#Dégradé_sans_nom_5);}</style><linearGradient id="Dégradé_sans_nom_5" x1="4.48" y1="29.05" x2="30.02" y2="-.12" gradientTransform="matrix(1, 0, 0, 1, 0, 0)" gradientUnits="userSpaceOnUse"><stop offset="0" stop-color="#ff79da"/><stop offset=".02" stop-color="#fb77da"/><stop offset=".33" stop-color="#ce69da"/><stop offset=".61" stop-color="#ae5edb"/><stop offset=".84" stop-color="#9a58db"/><stop offset="1" stop-color="#9356dc"/></linearGradient></defs><g id="Calque_1-2"><path class="cls-1" d="M36.97,3.03c-2.02-2.02-4.51-3.03-7.47-3.03-1.73,0-3.38,.41-4.95,1.23-1.57,.82-3.08,2.16-4.55,4.02-1.3-1.87-2.78-3.21-4.45-4.02-1.67-.82-3.35-1.23-5.05-1.23C7.53,0,5.04,1.01,3.03,3.03S0,7.55,0,10.55c0,3.8,1.63,7.55,4.9,11.25,3.27,3.7,7.62,8.03,13.05,13l1.76,1.59h.58l1.76-1.59c5.43-4.97,9.78-9.3,13.05-13,3.27-3.7,4.9-7.45,4.9-11.25,0-3-1.01-5.51-3.03-7.52Z"/></g></svg>