<?xml version="1.0" encoding="utf-8"?>
<!-- Generator: Adobe Illustrator 26.3.1, SVG Export Plug-In . SVG Version: 6.00 Build 0)  -->
<svg version="1.1" id="Calque_1" xmlns="http://www.w3.org/2000/svg" xmlns:xlink="http://www.w3.org/1999/xlink" x="0px" y="0px"
	 viewBox="0 0 48 48" style="enable-background:new 0 0 48 48;" xml:space="preserve">
<style type="text/css">
	.st0{fill:#FFFFFF;}
</style>
<path class="st0" d="M35,44V28h-5.8V12.8c0-2.6,0.8-4.8,2.4-6.3C33.2,4.8,35.4,4,38,4v40H35z M14.2,44V25.6
	c-1.7-0.4-3.2-1.2-4.4-2.6c-1.2-1.4-1.8-3-1.8-5V4h3v14h3.2V4h3v14h3.2V4h3v14c0,1.9-0.6,3.6-1.8,5c-1.2,1.4-2.7,2.3-4.4,2.6V44
	H14.2z"/>
</svg>
