<?xml version="1.0" encoding="UTF-8"?><svg id="Calque_2" xmlns="http://www.w3.org/2000/svg" viewBox="0 0 36 20"><defs><style>.cls-1{fill:#9356dc;}</style></defs><g id="Calque_1-2"><path class="cls-1" d="M1.5,20c-.43,0-.79-.14-1.07-.42-.28-.28-.43-.64-.43-1.08s.14-.79,.43-1.08c.28-.28,.64-.42,1.07-.42s.79,.14,1.07,.42c.28,.28,.43,.64,.43,1.08s-.14,.79-.43,1.08c-.28,.28-.64,.42-1.07,.42Zm0-8.5c-.43,0-.79-.14-1.07-.42-.28-.28-.43-.64-.43-1.08s.14-.79,.43-1.08c.28-.28,.64-.42,1.07-.42s.79,.14,1.07,.42c.28,.28,.43,.64,.43,1.08s-.14,.79-.43,1.08c-.28,.28-.64,.42-1.07,.42ZM1.5,3c-.43,0-.79-.14-1.07-.42-.28-.28-.43-.64-.43-1.08S.14,.71,.43,.43c.28-.28,.64-.43,1.07-.43s.79,.14,1.07,.43c.28,.28,.43,.64,.43,1.07s-.14,.79-.43,1.08c-.28,.28-.64,.42-1.07,.42Zm7,17v-3h27.5v3H8.5Zm0-8.5v-3h27.5v3H8.5Zm0-8.5V0h27.5V3H8.5Z"/></g></svg>