<?xml version="1.0" encoding="UTF-8"?><svg id="Calque_2" xmlns="http://www.w3.org/2000/svg" viewBox="0 0 40.2 36"><defs><style>.cls-1{fill:#9356dc;}</style></defs><g id="Calque_1-2"><path class="cls-1" d="M38.1,16.05v16.95c0,.8-.3,1.5-.9,2.1-.6,.6-1.3,.9-2.1,.9H5.05c-.8,0-1.5-.3-2.1-.9-.6-.6-.9-1.3-.9-2.1V16.05c-.93-.8-1.55-1.78-1.85-2.95-.3-1.17-.27-2.33,.1-3.5L2.45,2.85c.27-.9,.73-1.6,1.4-2.1,.67-.5,1.43-.75,2.3-.75h27.65c.93,0,1.75,.26,2.45,.78s1.18,1.21,1.45,2.07l2.2,6.75c.37,1.17,.39,2.33,.08,3.5-.32,1.17-.94,2.15-1.88,2.95Zm-13.5-1.55c.97,0,1.78-.32,2.45-.95,.67-.63,.93-1.4,.8-2.3l-1.25-8.25h-5V11.25c0,.87,.28,1.62,.85,2.27,.57,.65,1.28,.98,2.15,.98Zm-9.35,0c.93,0,1.73-.32,2.38-.95,.65-.63,.98-1.4,.98-2.3V3h-5l-1.25,8.25c-.13,.87,.1,1.62,.7,2.27,.6,.65,1.33,.98,2.2,.98Zm-9.1,0c.8,0,1.49-.27,2.07-.83,.58-.55,.93-1.23,1.02-2.02l1.3-8.65H5.55l-2.3,7.3c-.33,1.03-.2,1.99,.4,2.88,.6,.88,1.43,1.33,2.5,1.33Zm27.85,0c1.07,0,1.91-.43,2.53-1.3,.62-.87,.76-1.83,.42-2.9l-2.3-7.3h-5l1.3,8.65c.1,.8,.44,1.48,1.03,2.02,.58,.55,1.26,.83,2.03,.83ZM5.05,33h30.05v-15.55s-.08,.05-.33,.05h-.77c-.83,0-1.62-.18-2.38-.52-.75-.35-1.49-.89-2.23-1.62-.53,.67-1.2,1.19-2,1.58-.8,.38-1.68,.58-2.65,.58s-1.86-.14-2.58-.42c-.72-.28-1.41-.76-2.07-1.43-.5,.6-1.13,1.06-1.9,1.38-.77,.32-1.63,.48-2.6,.48-1.03,0-1.95-.18-2.75-.55-.8-.37-1.48-.9-2.05-1.6-.8,.7-1.58,1.23-2.35,1.6-.77,.37-1.53,.55-2.3,.55h-.68c-.22,0-.36-.02-.43-.05v15.55Zm30.05,0h0Z"/></g></svg>